HIERARCHY
ROOT Pelvis
{
	OFFSET 0.000000 0.000000 0.000000
	CHANNELS 6 Xposition Yposition Zposition Zrotation Yrotation Xrotation 
	JOINT Left_hip
	{
		OFFSET 0.070241 -0.085575 -0.010474
		CHANNELS 3 Zrotation Yrotation Xrotation
		JOINT Left_knee
		{
			OFFSET 0.032125 -0.356873 -0.000555
			CHANNELS 3 Zrotation Yrotation Xrotation
			JOINT Left_ankle
			{
				OFFSET -0.010961 -0.370212 -0.042278
				CHANNELS 3 Zrotation Yrotation Xrotation
				JOINT Left_foot
				{
					OFFSET 0.023322 -0.052281 0.110104
					CHANNELS 3 Zrotation Yrotation Xrotation
					End Site
					{
						OFFSET 0.000000 0.000000 0.000000
					}
				}
			}
		}
	}
	JOINT Right_hip
	{
		OFFSET -0.068518 -0.084320 -0.007402
		CHANNELS 3 Zrotation Yrotation Xrotation
		JOINT Right_knee
		{
			OFFSET -0.037345 -0.364815 -0.003619
			CHANNELS 3 Zrotation Yrotation Xrotation
			JOINT Right_ankle
			{
				OFFSET 0.013394 -0.370006 -0.039954
				CHANNELS 3 Zrotation Yrotation Xrotation
				JOINT Right_foot
				{
					OFFSET -0.019600 -0.045455 0.113223
					CHANNELS 3 Zrotation Yrotation Xrotation
					End Site
					{
						OFFSET 0.000000 0.000000 0.000000
					}
				}
			}
		}
	}
	JOINT Spine1
	{
		OFFSET -0.002404 0.098129 -0.018169
		CHANNELS 3 Zrotation Yrotation Xrotation
		JOINT Spine2
		{
			OFFSET 0.003989 0.127209 -0.001742
			CHANNELS 3 Zrotation Yrotation Xrotation
			JOINT Spine3
			{
				OFFSET 0.001758 0.046641 0.023475
				CHANNELS 3 Zrotation Yrotation Xrotation
				JOINT Neck
				{
					OFFSET -0.003759 0.194901 -0.039982
					CHANNELS 3 Zrotation Yrotation Xrotation
					JOINT Head
					{
						OFFSET 0.003999 0.063756 0.047665
						CHANNELS 3 Zrotation Yrotation Xrotation
						End Site
						{
							OFFSET 0.000000 0.000000 0.000000
						}
					}
				}
				JOINT Left_collar
				{
					OFFSET 0.071816 0.109048 -0.028973
					CHANNELS 3 Zrotation Yrotation Xrotation
					JOINT Left_shoulder
					{
						OFFSET 0.084027 0.032269 -0.006525
						CHANNELS 3 Zrotation Yrotation Xrotation
						JOINT Left_elbow
						{
							OFFSET 0.243854 -0.013992 -0.025905
							CHANNELS 3 Zrotation Yrotation Xrotation
							JOINT Left_wrist
							{
								OFFSET 0.232156 0.008196 -0.000339
								CHANNELS 3 Zrotation Yrotation Xrotation
								JOINT Left_palm
								{
									OFFSET 0.075377 -0.009461 -0.012494
									CHANNELS 3 Zrotation Yrotation Xrotation
									End Site
									{
										OFFSET 0.000000 0.000000 0.000000
									}
								}
							}
						}
					}
				}
				JOINT Right_collar
				{
					OFFSET -0.073768 0.107001 -0.033755
					CHANNELS 3 Zrotation Yrotation Xrotation
					JOINT Right_shoulder
					{
						OFFSET -0.086837 0.032868 -0.009431
						CHANNELS 3 Zrotation Yrotation Xrotation
						JOINT Right_elbow
						{
							OFFSET -0.236446 -0.012544 -0.018747
							CHANNELS 3 Zrotation Yrotation Xrotation
							JOINT Right_wrist
							{
								OFFSET -0.236110 0.006124 -0.004327
								CHANNELS 3 Zrotation Yrotation Xrotation
								JOINT Right_palm
								{
									OFFSET -0.074800 -0.006875 -0.009610
									CHANNELS 3 Zrotation Yrotation Xrotation
									End Site
									{
										OFFSET 0.000000 0.000000 0.000000
									}
								}
							}
						}
					}
				}
			}
		}
	}
}
MOTION
Frames: 8
Frame Time: 0.100000
0.096782 -0.014640 0.175993 -170.288515 -51.218689 -8.483586 14.211645 8.764410 -26.188889 -1.152104 2.303158 15.230366 -12.689095 10.189430 18.848104 15.947832 5.384202 -23.159248 3.452402 -1.639397 -5.696190 1.877376 7.453454 13.457374 8.084536 -10.757720 -15.731129 -18.628169 11.816233 0.414604 0.674881 6.128489 18.892288 -7.154428 -3.033769 2.406495 -1.113264 5.436505 -1.774776 -8.615017 5.683199 -7.740454 6.108397 5.263602 6.743977 -9.010319 -25.035121 -6.865609 -40.461448 -26.698369 16.205584 151.514421 -78.008592 -137.242788 13.743599 -13.522090 -15.576979 -23.929270 -12.254567 -4.726389 7.526013 34.891992 4.645495 32.602025 31.050364 14.036242 43.327380 72.460683 65.075861 -14.512705 14.527634 0.879335 16.058004 12.465185 -2.864415 
0.096669 -0.019716 0.200028 -171.729116 -49.900302 -4.481127 13.467549 7.818367 -27.029228 -1.668568 0.693405 12.796042 -10.748741 9.590506 15.230362 14.611567 6.069722 -17.030921 2.985558 -1.600552 -6.621991 1.366830 6.201068 11.104548 8.348307 -9.632418 -14.652016 -18.021943 6.645075 -0.419580 -0.271591 5.641696 19.644207 -7.488441 -4.534149 0.816891 -0.877664 4.405116 -1.276678 -9.350592 6.230213 -7.372050 7.619706 6.580967 4.950237 -11.300578 -30.539843 -6.217473 -36.392912 -24.649270 12.706162 32.455748 -68.109905 -18.188093 20.077146 -13.657224 -8.674183 -16.463932 -8.153110 -0.330198 7.311499 37.854344 1.704188 32.748549 30.525342 13.068522 83.647507 75.570462 104.699670 -20.858562 19.245051 -0.341835 13.035899 7.563102 0.398619 
0.094886 -0.026315 0.235925 -173.380949 -51.635530 0.532308 13.159696 7.192073 -31.001928 -1.997995 3.001931 16.284591 -6.889773 9.974870 10.527950 11.183102 6.055245 -14.133689 2.335649 -1.387559 -8.766988 0.892462 6.688437 10.017845 10.214234 -9.234630 -13.996188 -19.963225 5.473883 -0.791383 -2.484258 6.207020 19.769037 -7.376446 -5.008576 1.803133 -1.211252 4.618662 -2.366796 -9.811535 5.871827 -8.345460 9.100902 8.490543 3.309196 -9.621303 -28.264090 -5.039264 -36.850082 -18.999083 16.845747 -1.868609 -69.031902 24.427706 7.301366 -10.792481 -3.347822 -14.078896 -8.205371 -4.776719 5.726128 36.940255 0.709187 30.990005 37.727863 9.055987 50.882309 82.215153 68.755853 -17.460850 15.180319 -2.869520 13.699726 6.055695 -1.936648 
0.092097 -0.035038 0.270405 -176.516312 -53.796574 7.453903 14.180803 7.620085 -35.208322 -1.682179 7.419835 19.654301 -6.084005 8.128489 7.434186 8.443975 6.307134 -14.641486 2.222574 -1.589731 -9.405595 0.152555 6.655837 4.428721 11.056712 -8.421928 -12.071636 -21.228754 8.878961 0.655018 -2.742805 8.310042 20.898566 -9.837915 -2.983479 3.252707 -2.328828 6.293055 -4.592162 -7.463771 4.385995 -9.333749 9.634391 5.403450 1.914765 -10.248796 -24.966573 -5.653403 -43.737377 -16.258299 17.465103 78.205613 -82.254414 -62.876700 -17.067971 -12.457212 -10.751817 -18.855417 -11.517454 -10.663543 4.589441 38.444285 3.899891 30.537743 41.994690 5.629810 -14.005151 67.883296 2.994863 2.338123 6.852959 0.048491 13.631098 9.878697 -6.395191 
0.090854 -0.040119 0.287716 -178.801685 -52.503746 12.099261 14.298776 7.625125 -38.783296 -2.699775 6.220676 20.548464 -7.683397 10.879638 6.145586 12.954873 3.429407 -13.529907 2.369525 -2.976505 -8.053094 -0.484853 5.234126 1.999954 10.403243 -13.786419 -10.833268 -24.391591 12.032612 -1.124173 -1.899421 10.068461 24.929310 -12.069442 -2.167970 0.241127 -2.244381 7.542808 -2.261162 -7.219843 -0.834137 -11.645304 11.522877 4.529105 1.398162 -12.193432 -25.224623 -8.043331 -52.833530 -24.932730 15.836259 70.019844 -58.938010 -71.378013 -3.966333 -4.330703 -25.806263 -22.024011 -10.958978 -7.080556 1.601638 40.702646 1.233007 36.799137 44.994927 6.880053 -11.435395 46.536166 -13.494425 1.748866 0.116327 -22.073018 12.778091 11.545633 -2.613100 
0.087905 -0.039671 0.289175 179.346352 -52.616639 15.194570 15.366601 7.595834 -42.092317 -3.729269 4.765694 22.497077 -5.245724 12.689523 5.434793 11.718991 2.928510 -9.602391 1.299977 -4.129440 -6.828752 0.340214 6.397216 7.209914 11.859760 -12.661939 -7.975377 -26.962255 7.826543 -5.135090 -2.548614 11.957372 26.941272 -12.012885 -2.246541 0.199138 -1.443192 7.910204 -2.063460 -8.504620 -0.467742 -12.449878 12.543954 1.205780 -1.004897 -8.441620 -33.313039 -10.600765 -49.179757 -32.370609 12.375901 30.315203 -28.080625 -31.269222 8.081427 3.269020 -8.026526 -12.342793 -7.082986 -4.067616 0.342060 46.545412 -1.993505 41.614054 45.465163 6.605275 -8.400671 33.907089 -18.616039 -5.703968 -1.163820 -25.111898 9.037851 8.010275 0.065384 
0.080864 -0.034349 0.279158 177.094503 -54.189859 17.671703 17.458225 8.721609 -43.998011 -3.294990 5.473769 24.645229 -4.034759 12.633225 5.803245 9.599651 3.071783 -10.146502 -0.174540 -4.529764 -5.036248 0.516564 7.534512 10.523167 12.665071 -12.091636 -5.400173 -27.674279 7.967555 -6.594189 -3.112501 12.784790 27.717995 -12.157532 -2.685016 -1.060889 -1.233387 8.272525 -1.006608 -8.972739 -0.222899 -14.018868 13.244913 1.502362 -2.294590 -6.137276 -35.791385 -10.675731 -51.544917 -31.940767 11.987607 23.416863 -20.984633 -39.882935 3.200968 4.307625 -26.508898 -12.875834 -5.092576 -0.852445 -2.314505 49.604165 -3.041691 44.166897 47.734254 7.624845 -6.483406 29.139874 -21.071202 -6.107243 -4.350580 -30.558842 9.093554 6.545423 1.115706 
0.070836 -0.026097 0.256779 177.966690 -57.407525 16.997455 18.416551 10.315193 -44.077408 -2.935939 6.837173 24.825308 -4.310039 13.170048 8.296440 8.641219 1.628221 -13.688547 -3.082070 -4.941980 -4.506973 -0.363856 9.096203 13.674362 16.409755 -12.986746 -3.418250 -35.193081 9.426693 -10.051404 -2.726717 12.179256 27.091857 -15.565395 -3.209719 -4.319855 -2.861653 9.176244 1.656591 -9.922209 -2.998204 -15.759006 15.715142 5.709776 -2.744662 -8.462725 -34.962718 -9.430881 -57.454103 -23.969122 12.837176 33.739668 -33.575150 -51.647382 6.256552 3.774012 -41.312926 -16.735465 -4.882290 1.489880 -9.047882 48.283882 -4.939782 47.787721 45.714832 8.352682 -3.217990 37.725145 -17.128069 -9.210481 -4.667569 -35.651247 10.409634 7.105170 1.889458 
